<svg width="173" height="55" viewBox="0 0 173 55" fill="none" xmlns="http://www.w3.org/2000/svg">
<path d="M5.5 15.1875C5.23438 14.7188 4.97656 14.2344 4.72656 13.7344C4.47656 13.2344 4.25781 12.7188 4.07031 12.1875C3.88281 11.6406 3.73438 11.0703 3.625 10.4766C3.51562 9.86719 3.46094 9.21875 3.46094 8.53125C3.46094 7.51563 3.67969 6.53906 4.11719 5.60156C4.55469 4.64844 5.17188 3.80469 5.96875 3.07031C6.76562 2.33594 7.72656 1.75 8.85156 1.3125C9.97656 0.859375 11.2344 0.632812 12.625 0.632812C14.0469 0.632812 15.5234 0.796875 17.0547 1.125C18.6016 1.45312 20.1562 1.89844 21.7188 2.46094C23.2812 3.02344 24.8359 3.67188 26.3828 4.40625C27.9297 5.14062 29.4219 5.91406 30.8594 6.72656C32.2969 7.53906 33.6484 8.36719 34.9141 9.21094C36.1953 10.0391 37.3516 10.8281 38.3828 11.5781L36.4141 14.8125C34.3203 13.2969 32.3828 11.9922 30.6016 10.8984C28.8203 9.78906 27.1719 8.85156 25.6562 8.08594C24.1562 7.32031 22.7734 6.70312 21.5078 6.23438C20.2578 5.76562 19.1172 5.40625 18.0859 5.15625C17.0547 4.90625 16.1172 4.74219 15.2734 4.66406C14.4453 4.57031 13.6953 4.52344 13.0234 4.52344C12.8047 4.52344 12.5234 4.54688 12.1797 4.59375C11.8516 4.64062 11.4922 4.72656 11.1016 4.85156C10.7266 4.96094 10.3438 5.125 9.95312 5.34375C9.57812 5.54688 9.23438 5.82031 8.92188 6.16406C8.625 6.49219 8.375 6.89844 8.17188 7.38281C7.98438 7.85156 7.89062 8.40625 7.89062 9.04688C7.89062 10.0781 8.08594 11.0781 8.47656 12.0469C8.88281 13 9.4375 14.0469 10.1406 15.1875H16.1641V19.1953H10.4688V45H5.26562V19.1953H0.460938V15.1875H5.5ZM44.3594 19.1953H38.7578V45H33.5547V35.3906C32.4297 36.1875 31.2578 36.8203 30.0391 37.2891C28.8359 37.7422 27.5469 37.9688 26.1719 37.9688C25.25 37.9688 24.3203 37.8672 23.3828 37.6641C22.4453 37.4609 21.5938 37.125 20.8281 36.6562C20.0781 36.1875 19.4609 35.5625 18.9766 34.7812C18.5078 33.9844 18.2734 33 18.2734 31.8281C18.2734 31.1875 18.3984 30.5781 18.6484 30C18.9141 29.4219 19.25 28.8828 19.6562 28.3828C20.0781 27.8828 20.5391 27.4219 21.0391 27C21.5391 26.5781 22.0234 26.2031 22.4922 25.875H15.4609V21.9844H30.2266L31.4453 25.6172C29.8828 26.1953 28.5859 26.7656 27.5547 27.3281C26.5391 27.8906 25.7266 28.4297 25.1172 28.9453C24.5078 29.4609 24.0781 29.9531 23.8281 30.4219C23.5938 30.875 23.4766 31.2969 23.4766 31.6875C23.4766 32.1719 23.5625 32.5703 23.7344 32.8828C23.9219 33.1797 24.1484 33.4219 24.4141 33.6094C24.6797 33.7812 24.9688 33.9062 25.2812 33.9844C25.5938 34.0469 25.8906 34.0781 26.1719 34.0781C26.6875 34.0781 27.2109 34.0078 27.7422 33.8672C28.2734 33.7109 28.8281 33.4609 29.4062 33.1172C30 32.7734 30.6328 32.3359 31.3047 31.8047C31.9922 31.2578 32.7422 30.5859 33.5547 29.7891V19.1953H13.8906V15.1875H44.3594V19.1953ZM71.8047 15.1875V19.1953H66.2031V45H61V33.8906L47.9219 41.1328L45.8125 37.4062L60.0625 29.5781C59.5 29.0469 58.8984 28.5938 58.2578 28.2188C57.6328 27.8438 56.9922 27.5391 56.3359 27.3047C55.6797 27.0703 55.0156 26.8984 54.3438 26.7891C53.6719 26.6797 53.0078 26.625 52.3516 26.625H44.3125V22.7344H51.8594C52.9062 22.7344 53.875 22.8047 54.7656 22.9453C55.6719 23.0703 56.5 23.2422 57.25 23.4609C58 23.6797 58.6875 23.9375 59.3125 24.2344C59.9375 24.5312 60.5 24.8516 61 25.1953V19.1953H42.7656V15.1875H71.8047ZM94.1641 44.6953C94.1641 46.3672 93.8672 47.8359 93.2734 49.1016C92.6953 50.3672 91.9219 51.4219 90.9531 52.2656C89.9844 53.1094 88.8672 53.7422 87.6016 54.1641C86.3516 54.6016 85.0547 54.8203 83.7109 54.8203C82.5391 54.8203 81.4297 54.6562 80.3828 54.3281C79.3516 54 78.3906 53.4922 77.5 52.8047C76.625 52.1328 75.8359 51.2656 75.1328 50.2031C74.4297 49.1562 73.8281 47.8984 73.3281 46.4297H78.7422C79.3516 47.7891 80.0625 48.7656 80.875 49.3594C81.6875 49.9688 82.6328 50.2734 83.7109 50.2734C84.3828 50.2734 85.0156 50.1406 85.6094 49.875C86.2188 49.6094 86.7422 49.2344 87.1797 48.75C87.6328 48.2812 87.9844 47.7109 88.2344 47.0391C88.5 46.3828 88.6328 45.6641 88.6328 44.8828V42.7969C87.8672 43.6406 86.9688 44.2969 85.9375 44.7656C84.9062 45.2344 83.8828 45.4688 82.8672 45.4688C81.2734 45.4688 79.8516 45.1484 78.6016 44.5078C77.3516 43.8516 76.2891 42.9609 75.4141 41.8359C74.5547 40.7109 73.8984 39.3984 73.4453 37.8984C72.9922 36.3828 72.7656 34.7734 72.7656 33.0703C72.7656 31.3672 73 29.7656 73.4688 28.2656C73.9531 26.75 74.6328 25.4297 75.5078 24.3047C76.3984 23.1797 77.4688 22.2969 78.7188 21.6562C79.9844 21 81.3984 20.6719 82.9609 20.6719C83.3828 20.6719 83.8203 20.7031 84.2734 20.7656C84.7422 20.8125 85.2188 20.9297 85.7031 21.1172C86.1875 21.3047 86.6719 21.5781 87.1562 21.9375C87.6562 22.2812 88.1484 22.75 88.6328 23.3438V21.1406H94.1641V44.6953ZM88.6328 32.8125C88.6172 31.7812 88.4922 30.8125 88.2578 29.9062C88.0391 29 87.7188 28.2109 87.2969 27.5391C86.8906 26.8516 86.3828 26.3125 85.7734 25.9219C85.1797 25.5312 84.5 25.3359 83.7344 25.3359C82.9375 25.3359 82.2031 25.5391 81.5312 25.9453C80.8594 26.3516 80.2734 26.9062 79.7734 27.6094C79.2734 28.2969 78.8828 29.1094 78.6016 30.0469C78.3203 30.9844 78.1797 31.9922 78.1797 33.0703C78.1797 34.1484 78.3203 35.1641 78.6016 36.1172C78.8828 37.0703 79.2734 37.9062 79.7734 38.625C80.2734 39.3438 80.8594 39.9141 81.5312 40.3359C82.2031 40.7422 82.9375 40.9453 83.7344 40.9453C84.5156 40.9453 85.2109 40.7422 85.8203 40.3359C86.4297 39.9297 86.9375 39.375 87.3438 38.6719C87.7656 37.9531 88.0859 37.125 88.3047 36.1875C88.5234 35.2344 88.6328 34.2188 88.6328 33.1406V32.8125ZM99.4141 21.1406H103.492L104.406 24.0703C105.125 22.9453 105.867 22.1016 106.633 21.5391C107.414 20.9609 108.266 20.6719 109.188 20.6719C109.469 20.6719 109.922 20.7344 110.547 20.8594C111.172 20.9688 111.922 21.2656 112.797 21.75V26.5312C112.219 26.3125 111.719 26.1406 111.297 26.0156C110.891 25.8906 110.547 25.8047 110.266 25.7578C110 25.6953 109.789 25.6641 109.633 25.6641C109.492 25.6484 109.391 25.6406 109.328 25.6406C108.641 25.6406 108.023 25.7891 107.477 26.0859C106.93 26.3672 106.469 26.75 106.094 27.2344C105.719 27.7031 105.43 28.25 105.227 28.875C105.023 29.5 104.922 30.1484 104.922 30.8203V45H99.4141V21.1406ZM136.609 44.3672C136.156 44.6484 135.758 44.8594 135.414 45C135.07 45.1562 134.758 45.2656 134.477 45.3281C134.211 45.4062 133.977 45.4453 133.773 45.4453C133.586 45.4609 133.422 45.4688 133.281 45.4688C132.719 45.4688 132.203 45.3672 131.734 45.1641C131.281 44.9766 130.875 44.7109 130.516 44.3672C130.172 44.0234 129.867 43.6328 129.602 43.1953C129.352 42.7422 129.141 42.2656 128.969 41.7656C128.266 42.5 127.602 43.1094 126.977 43.5938C126.352 44.0625 125.734 44.4375 125.125 44.7188C124.516 45 123.906 45.1953 123.297 45.3047C122.688 45.4141 122.055 45.4688 121.398 45.4688C120.336 45.4688 119.336 45.3047 118.398 44.9766C117.477 44.6328 116.672 44.1562 115.984 43.5469C115.297 42.9219 114.75 42.1719 114.344 41.2969C113.953 40.4219 113.758 39.4531 113.758 38.3906C113.758 37.4688 113.961 36.6719 114.367 36C114.789 35.3281 115.336 34.7422 116.008 34.2422C116.695 33.7422 117.469 33.3125 118.328 32.9531C119.203 32.5938 120.086 32.2734 120.977 31.9922C121.883 31.6953 122.766 31.4141 123.625 31.1484C124.5 30.8828 125.273 30.6016 125.945 30.3047C126.633 30.0078 127.18 29.6797 127.586 29.3203C128.008 28.9453 128.219 28.5 128.219 27.9844C128.219 27.4844 128.086 27.0703 127.82 26.7422C127.57 26.3984 127.242 26.125 126.836 25.9219C126.445 25.7031 126 25.5469 125.5 25.4531C125.016 25.3594 124.539 25.3125 124.07 25.3125C123.602 25.3125 123.133 25.3828 122.664 25.5234C122.195 25.6484 121.766 25.8516 121.375 26.1328C121 26.4141 120.68 26.7812 120.414 27.2344C120.148 27.6719 119.977 28.1953 119.898 28.8047H114.297C114.391 27.4297 114.727 26.2344 115.305 25.2188C115.898 24.1875 116.648 23.3359 117.555 22.6641C118.461 21.9922 119.477 21.4922 120.602 21.1641C121.742 20.8359 122.898 20.6719 124.07 20.6719C125.352 20.6719 126.57 20.8125 127.727 21.0938C128.898 21.375 129.93 21.8203 130.82 22.4297C131.711 23.0391 132.422 23.8203 132.953 24.7734C133.484 25.7109 133.75 26.8438 133.75 28.1719V39.75C133.75 40.0625 133.852 40.3516 134.055 40.6172C134.258 40.8672 134.555 40.9922 134.945 40.9922C134.977 40.9922 135.141 40.9766 135.438 40.9453C135.734 40.8984 136.125 40.7422 136.609 40.4766V44.3672ZM128.219 33.5625C127.859 33.7812 127.391 33.9766 126.812 34.1484C126.234 34.3203 125.609 34.5 124.938 34.6875C124.266 34.8594 123.586 35.0469 122.898 35.25C122.227 35.4531 121.617 35.6953 121.07 35.9766C120.523 36.2422 120.07 36.5625 119.711 36.9375C119.367 37.2969 119.195 37.7266 119.195 38.2266C119.195 38.7109 119.273 39.125 119.43 39.4688C119.586 39.8125 119.789 40.0938 120.039 40.3125C120.305 40.5312 120.602 40.6953 120.93 40.8047C121.258 40.8984 121.586 40.9453 121.914 40.9453C122.992 40.9453 124.086 40.5859 125.195 39.8672C126.32 39.1328 127.328 38.0312 128.219 36.5625V33.5625ZM139.773 21.1406H145.305V23.6953C146.242 22.6172 147.211 21.8438 148.211 21.375C149.227 20.9062 150.203 20.6719 151.141 20.6719C151.703 20.6719 152.242 20.7266 152.758 20.8359C153.273 20.9453 153.773 21.1562 154.258 21.4688C154.758 21.7656 155.242 22.1953 155.711 22.7578C156.18 23.3047 156.656 24.0234 157.141 24.9141C157.703 24.1016 158.281 23.4219 158.875 22.875C159.484 22.3281 160.094 21.8906 160.703 21.5625C161.328 21.2344 161.945 21.0078 162.555 20.8828C163.18 20.7422 163.789 20.6719 164.383 20.6719C165.586 20.6719 166.672 20.8906 167.641 21.3281C168.625 21.75 169.461 22.3359 170.148 23.0859C170.852 23.8359 171.391 24.7188 171.766 25.7344C172.141 26.75 172.328 27.8438 172.328 29.0156V45H166.82V29.25C166.82 28.4844 166.719 27.8516 166.516 27.3516C166.328 26.8516 166.078 26.4531 165.766 26.1562C165.453 25.8594 165.102 25.6484 164.711 25.5234C164.336 25.3984 163.953 25.3359 163.562 25.3359C163 25.3359 162.445 25.4688 161.898 25.7344C161.352 26 160.852 26.3672 160.398 26.8359C159.961 27.3047 159.602 27.8594 159.32 28.5C159.055 29.125 158.922 29.8047 158.922 30.5391V45H153.391V29.25C153.391 28.4844 153.289 27.8516 153.086 27.3516C152.898 26.8516 152.656 26.4531 152.359 26.1562C152.062 25.8594 151.734 25.6484 151.375 25.5234C151.031 25.3984 150.695 25.3359 150.367 25.3359C149.664 25.3359 149 25.5078 148.375 25.8516C147.766 26.1953 147.234 26.6328 146.781 27.1641C146.328 27.6953 145.969 28.2812 145.703 28.9219C145.438 29.5625 145.305 30.1719 145.305 30.75V45H139.773V21.1406Z" fill="#FFB8B8"/>
</svg>
